HIERARCHY
ROOT Hips
{
	OFFSET -3.958830 18.904000 13.208200
	CHANNELS 6 Xposition Yposition Zposition Zrotation Yrotation Xrotation 
	JOINT LHipJoint
	{
		OFFSET 0.000000 0.000000 0.000000
		CHANNELS 3 Zrotation Yrotation Xrotation
		JOINT LeftUpLeg
		{
			OFFSET 1.800000 -1.400000 0.085000
			CHANNELS 3 Zrotation Yrotation Xrotation
			JOINT LeftLeg
			{
				OFFSET 2.215000 -6.000000 0.000000
				CHANNELS 3 Zrotation Yrotation Xrotation
				JOINT LeftFoot
				{
					OFFSET 2.500000 -6.900000 0.000000
					CHANNELS 3 Zrotation Yrotation Xrotation
					JOINT LeftToeBase
					{
						OFFSET 0.200000 -0.500000 1.950000
						CHANNELS 3 Zrotation Yrotation Xrotation
						End Site
						{
							OFFSET 0.000000 0.000000 0.000000
						}
					}
				}
			}
		}
	}
	JOINT RHipJoint
	{
		OFFSET 0.000000 0.000000 0.000000
		CHANNELS 3 Zrotation Yrotation Xrotation
		JOINT RightUpLeg
		{
			OFFSET -1.800000 -1.400000 0.085000
			CHANNELS 3 Zrotation Yrotation Xrotation
			JOINT RightLeg
			{
				OFFSET -2.215000 -6.000000 0.000000
				CHANNELS 3 Zrotation Yrotation Xrotation
				JOINT RightFoot
				{
					OFFSET -2.500000 -6.900000 0.000000
					CHANNELS 3 Zrotation Yrotation Xrotation
					JOINT RightToeBase
					{
						OFFSET -0.200000 -0.500000 1.950000
						CHANNELS 3 Zrotation Yrotation Xrotation
						End Site
						{
							OFFSET 0.000000 0.000000 0.000000
						}
					}
				}
			}
		}
	}
	JOINT LowerBack
	{
		OFFSET 0.000000 0.000000 0.000000
		CHANNELS 3 Zrotation Yrotation Xrotation
		JOINT Spine
		{
			OFFSET -0.087000 1.940000 -0.288900
			CHANNELS 3 Zrotation Yrotation Xrotation
			JOINT Spine1
			{
				OFFSET 0.000000 1.950000 0.060000
				CHANNELS 3 Zrotation Yrotation Xrotation
				JOINT Neck
				{
					OFFSET 0.000000 0.000000 0.000000
					CHANNELS 3 Zrotation Yrotation Xrotation
					JOINT Neck1
					{
						OFFSET 0.000000 1.600000 0.340000
						CHANNELS 3 Zrotation Yrotation Xrotation
						JOINT Head
						{
							OFFSET 0.000000 1.667000 -0.240000
							CHANNELS 3 Zrotation Yrotation Xrotation
							End Site
							{
								OFFSET 0.000000 0.000000 0.000000
							}
						}
					}
				}
				JOINT LeftShoulder
				{
					OFFSET 0.000000 0.000000 0.000000
					CHANNELS 3 Zrotation Yrotation Xrotation
					JOINT LeftArm
					{
						OFFSET 2.700000 1.550000 -0.730000
						CHANNELS 3 Zrotation Yrotation Xrotation
						JOINT LeftForeArm
						{
							OFFSET 5.450000 0.000000 0.000000
							CHANNELS 3 Zrotation Yrotation Xrotation
							JOINT LeftHand
							{
								OFFSET 3.450000 0.000000 0.000000
								CHANNELS 3 Zrotation Yrotation Xrotation
								JOINT LeftHandIndex1
								{
									OFFSET 0.750000 0.000000 0.000000
									CHANNELS 3 Zrotation Yrotation Xrotation
									End Site
									{
										OFFSET 0.000000 0.000000 0.000000
									}
								}
							}
						}
					}
				}
				JOINT RightShoulder
				{
					OFFSET 0.000000 0.000000 0.000000
					CHANNELS 3 Zrotation Yrotation Xrotation
					JOINT RightArm
					{
						OFFSET -2.700000 1.550000 -0.730000
						CHANNELS 3 Zrotation Yrotation Xrotation
						JOINT RightForeArm
						{
							OFFSET -5.450000 0.000000 0.000000
							CHANNELS 3 Zrotation Yrotation Xrotation
							JOINT RightHand
							{
								OFFSET -3.450000 0.000000 0.000000
								CHANNELS 3 Zrotation Yrotation Xrotation
								JOINT RightHandIndex1
								{
									OFFSET -0.750000 0.000000 0.000000
									CHANNELS 3 Zrotation Yrotation Xrotation
									End Site
									{
										OFFSET 0.000000 0.000000 0.000000
									}
								}
							}
						}
					}
				}
			}
		}
	}
}
MOTION
Frames: 11
Frame Time: 0.016667
22.306550 16.307700 -18.827820 -11.707409 29.983211 -13.259836 -15.437444 8.690755 3.075652 -12.001735 -9.020175 -24.552473 32.130019 -8.554143 46.278748 0.910044 7.020992 1.093583 -1.629620 0.968690 -3.624550 18.597863 -10.083207 5.504828 -16.887928 8.011074 -39.140642 43.472126 -47.660528 65.607373 -2.108971 -14.250358 -0.969693 0.825190 2.532120 -2.046810 -4.234591 5.886073 -8.926756 6.430002 7.024652 8.171743 -2.759389 3.237076 8.558560 18.073075 7.832199 -15.856197 44.493389 49.851698 21.170536 119.130970 -26.850330 28.030580 -69.939451 -36.163037 29.447064 3.263145 -29.048410 -14.584746 6.028979 -23.840443 -1.485725 -2.349044 2.519258 -0.184480 -0.646520 -0.323380 0.185140 37.321471 41.910831 14.358604 1.453716 29.077735 -12.372011 -2.854418 33.854681 -1.728509 5.345692 0.333561 -1.165240 2.614470 1.347880 2.434790 
22.323140 16.313640 -18.920760 -10.342039 29.053988 -15.276159 -15.627095 10.816719 2.449425 -3.726606 -5.153611 -23.359028 18.895988 -0.145163 46.007283 -0.837604 6.053936 0.831037 -3.949710 -0.576330 -5.302420 18.062867 -9.763404 5.968734 -19.331638 8.970970 -38.074979 41.649676 -47.276413 66.472424 -1.330605 -14.388233 -1.434039 0.529830 3.028860 -2.990330 -3.317309 2.678138 -9.287873 8.229287 7.451304 15.413250 -5.303278 5.334858 6.801285 19.711491 6.972352 -19.556599 59.931122 46.511780 27.801456 122.832700 -15.114670 26.116520 -69.342445 -38.338046 28.879125 0.445381 -28.880803 -13.345824 9.530822 -23.362594 -1.628276 -4.149620 0.876449 -0.290490 -0.068370 -0.942340 -0.993300 31.122754 44.505089 10.109617 3.110361 28.477176 -11.398679 -4.214324 34.291425 -1.722182 4.547167 1.906315 -2.456740 3.551300 3.187770 2.163210 
22.201590 16.285380 -19.187530 -8.526772 25.382955 -37.320265 -15.624490 13.853512 2.294753 -3.191208 -0.422270 0.189438 22.279910 -0.886867 43.854558 -0.485301 8.089488 1.367415 0.085890 -0.403810 0.763050 17.797571 -8.593250 5.275314 -22.925868 11.006394 -17.278554 44.369581 -47.844073 65.649023 -3.202164 -14.142202 -0.421372 -0.047320 -0.341910 -0.010610 -2.671941 -4.515100 -8.875304 5.477790 1.000911 52.498286 -13.534516 5.693262 3.474283 9.362869 9.577256 -26.641750 15.956113 -17.145255 66.583956 4.886170 -8.813950 -41.149240 -26.355376 -51.029873 7.684073 -6.319064 -33.069357 -7.225211 20.601069 -10.812328 -4.505878 -3.712944 1.776163 1.664650 -0.544700 0.497840 -0.592280 6.068504 55.695863 4.326624 -6.608917 23.835933 -18.034581 -10.252436 52.487213 -2.214347 2.109338 -0.691357 -0.729400 0.549080 0.426600 -0.681560 
22.216350 16.430120 -19.081460 -9.125906 23.244459 -35.707130 -15.573849 13.543946 2.128619 -2.628593 -1.369760 -1.831776 21.458077 -0.723847 45.764381 -0.126839 8.137584 1.464354 0.243370 -0.423350 0.835640 17.912882 -8.347818 5.722811 -26.212829 9.935197 -21.955664 45.685355 -52.754460 68.918347 -3.458685 -14.529120 -0.494188 -0.184120 -0.411150 0.096570 -2.862892 -4.290546 -9.200687 4.767286 2.249892 50.837601 -10.442323 3.961575 -4.596316 6.252726 6.005815 -26.839781 6.635068 -12.282605 72.077466 13.548200 -10.611900 -36.705750 -23.839553 -46.463219 8.914458 -8.094700 -31.944206 -2.911764 13.123569 -14.266697 -2.931501 -3.376181 2.085899 1.653070 -0.692860 0.559470 -0.385000 10.996631 50.955304 5.622982 -5.615788 28.880002 -12.978164 -5.400738 56.122934 1.013123 2.284885 -0.758092 -0.544680 0.319870 0.209890 -0.607580 
22.077370 16.567800 -18.882180 -8.795631 19.466794 -36.779971 -15.859444 14.124725 1.765448 2.357452 0.307982 0.701328 18.279962 1.463373 44.239418 -0.073258 7.898033 1.557891 0.444670 -0.133790 0.828910 17.628308 -7.976671 5.747558 -25.749830 10.455038 -18.527656 47.320044 -56.249753 70.347988 -3.580494 -14.611528 -0.489879 -0.045010 -0.425280 0.154890 -1.861724 -5.711311 -8.987207 -3.570603 8.711683 44.912357 -0.965692 7.186372 4.448300 6.116770 6.061119 -24.222088 6.229986 -12.193640 64.717372 15.981760 -10.230440 -39.334020 -19.289510 -47.050205 7.030795 -5.680061 -32.828642 -3.468039 13.284554 -12.119393 -2.852493 -3.346119 2.393919 1.519450 -0.681950 0.573910 -0.252190 7.972882 52.109151 6.519229 -14.729524 24.000013 -16.344367 -10.000477 58.505934 -0.874164 2.292703 -1.104525 -0.398960 0.243180 0.080600 -0.523960 
22.209060 16.705650 -18.787570 -18.041682 9.538714 -39.880111 -15.643013 14.521452 1.268001 12.171038 1.105892 1.420929 17.699307 2.539606 43.253110 0.109910 7.841819 1.601095 0.459220 -0.113840 0.825730 17.761168 -7.844317 6.254698 -21.607201 13.614658 -23.255722 43.930111 -58.956837 76.932289 -3.896028 -15.867141 -0.762313 -0.117220 -0.505840 0.196420 -2.243256 -5.974612 -9.201999 14.408185 0.304645 47.140885 -9.520443 6.683123 -0.300601 8.362147 5.409219 -22.839304 2.621921 -10.686562 63.190563 13.927140 -12.364200 -36.336260 -23.125390 -44.270530 7.807772 -4.342068 -30.561881 -3.704675 11.648611 -13.401431 -2.315094 -3.183296 2.672647 1.357440 -0.711580 0.570930 -0.227490 6.619526 49.927347 5.647978 -16.465493 24.177870 -14.904376 -10.022807 65.344967 -0.598459 2.345963 -1.252850 -0.237090 0.065510 -0.005430 -0.446340 
22.360280 16.824360 -18.662900 -26.824991 -3.962971 -35.579587 -15.038359 13.462221 1.122325 10.006707 0.585200 -8.039455 22.590785 0.293260 52.803602 0.478637 9.264070 1.322049 0.148800 -0.342260 0.341430 18.458197 -8.535312 6.497169 -13.367906 19.978664 -35.592576 28.536937 -53.220532 90.781271 -4.271144 -18.888535 -1.136468 -0.177000 0.001640 0.055490 -3.946404 -2.924358 -9.050783 37.819473 -6.865734 38.819528 -18.786881 7.679325 0.527511 8.399115 2.666359 -18.826126 -2.615046 -11.328671 51.666860 17.695180 -19.973020 -24.708580 -19.890123 -41.282828 7.643528 -6.290965 -32.997145 -0.826531 12.428508 -9.767861 -2.144950 -3.492746 2.474083 1.015300 -0.377990 0.182290 -0.077510 2.087716 45.924965 3.856364 -19.374523 22.411860 -14.777730 -15.108234 73.561000 -4.527574 2.178857 -1.337048 -0.378430 0.280110 0.121470 -0.237750 
22.429760 17.000460 -18.468910 -34.349350 -13.102158 -28.405734 -14.785145 12.835961 0.783812 16.171844 1.326019 -12.205295 25.607903 -0.654870 50.937772 0.503555 9.270759 1.422704 0.103170 -0.341850 0.135690 18.840690 -9.010960 6.576167 -8.559678 23.545961 -43.698203 22.587674 -47.305358 92.443857 -4.141351 -19.340984 -1.183376 -0.101980 0.279490 0.010180 -5.018746 -0.693662 -8.683937 53.120782 -6.581219 26.651169 -20.690696 9.182218 3.203241 8.255560 0.608276 -14.312831 -3.487164 -13.949362 41.355805 14.624600 -24.034030 -15.742370 -18.747179 -36.132282 6.805362 -4.912890 -33.993844 1.841751 4.452309 -13.361384 -0.487925 -3.568159 2.573942 0.699480 -0.173130 -0.079900 0.065640 0.729535 40.505442 2.326620 -22.349673 24.793483 -13.119536 -24.443174 75.777526 -10.882506 2.172833 -1.398686 -0.405540 0.340940 0.115110 -0.087040 
22.455300 17.220690 -18.428270 -32.656963 -19.218014 -29.059430 -15.018758 12.770084 1.426254 11.884744 0.837124 -18.113323 16.766385 5.117047 59.613698 0.378952 10.560023 0.841118 0.041870 -0.707300 0.314880 18.679849 -8.557828 6.511364 -10.472456 23.784313 -46.448326 14.242124 -37.962435 94.633148 -3.665771 -18.279447 -1.230318 -0.221460 0.157630 0.136500 -4.569325 -1.505226 -8.960321 49.990371 -3.698897 31.681992 -14.467412 11.613391 -0.197738 7.387327 3.095500 -13.575485 0.902682 -17.282286 41.059414 8.553290 -24.806450 -10.699790 -20.436554 -34.038282 6.463019 -6.771576 -35.687158 4.363900 1.748891 -13.406069 -0.217867 -3.622813 2.733522 0.889040 -0.200590 -0.135700 -0.104730 3.988322 37.690183 2.885801 -28.567014 24.180530 -12.543832 -25.933355 77.921010 -10.891123 2.199074 -1.380664 -0.520330 0.139240 0.267810 -0.322020 
22.453530 17.461630 -18.435670 -33.201473 -22.392946 -32.665024 -15.036141 12.592158 1.943749 9.502675 -0.753944 -20.541487 11.743401 7.677036 60.737911 -0.087727 11.312878 0.359561 -0.045320 -1.230280 0.395800 18.661629 -8.738754 6.106012 -8.889965 22.156489 -43.970774 7.874543 -28.945680 92.026076 -3.056570 -16.350572 -1.201173 -0.322690 0.168470 0.386360 -4.595412 -1.369881 -8.886600 51.699467 -6.067823 34.786374 -14.600426 10.787203 1.806859 7.450905 2.614515 -12.936137 -1.137782 -16.242254 44.741881 13.303800 -26.861210 -14.038660 -17.349576 -35.237210 5.374324 -4.867042 -38.747145 6.120712 -1.360248 -2.894816 -1.228333 -3.852492 2.881192 1.278280 -0.322570 -0.133460 -0.200140 0.939575 37.740561 2.576974 -30.041614 20.084309 -14.972952 -35.238279 77.778510 -16.519374 1.987985 -1.107137 -0.751910 0.055290 0.598370 -0.527710 
22.530670 17.594230 -18.530980 -32.483349 -19.962818 -36.260883 -15.061581 13.302174 1.769262 8.501095 -0.464362 -13.540374 9.601927 6.754844 51.154617 0.215585 8.794860 1.389372 0.209250 -0.315070 0.403420 18.499105 -9.266013 5.739551 -12.359039 17.433559 -44.466661 1.557610 -20.451207 87.204685 -2.610872 -14.117564 -0.351158 -0.118000 -0.044860 0.140070 -4.056750 -2.010095 -8.602162 47.278613 -8.008149 40.194517 -13.896222 8.150132 2.173622 8.355592 7.045111 -14.172655 7.100456 -21.676712 43.791956 10.144470 -25.061480 -18.017360 -13.910464 -37.462720 6.780240 3.765939 -35.084850 2.083501 -7.609296 -3.434306 0.427007 -3.533147 2.684033 0.848910 -0.296580 0.109210 -0.085040 -4.201261 37.372330 2.892844 -31.746957 12.580053 -16.042874 -59.318207 70.775436 -28.117858 1.931764 -0.636546 -0.307210 0.121730 0.089310 -0.241030 
